.
 
http://www.scenetime.com    -  Hottest private tracker on the net. !!!

Sign up will close shortly !!  Join now 

        Seed back for speed


...................................NFO:.................................................








































          
          
              
              
                    
                    
                    
                    

How.To.Murder.Your.Wife.1965.DVDRip.x264.AC3-SiC

Poster:
[img]https://lh4.googleusercontent.com/-zxeEufgW7SE/Tkwnxi69s7I/AAAAAAAAAQs/sZOoxexJyqw/s800/how-to-murder-your-wife-movie-poster-1965-1020209123.jpg[/img]

IMDB Link: 
http://www.imdb.com/title/tt0058212/

Description:
A man who has set up the perfect lifestyle for himself makes the mistake of marrying while drunk... and his fantasies of murder are used against him. 

MediaInfo:
General
Complete name                    : How.To.Murder.Your.Wife.1965.DVDRip.x264.AC3-SiC.mkv
Format                           : Matroska
Format version                   : Version 2
File size                        : 1.90 GiB
Duration                         : 1h 58mn
Overall bit rate                 : 2 293 Kbps
Encoded date                     : UTC 2011-08-17 15:32:59
Writing application              : mkvmerge v4.9.1 ('Ich will') built on Jul 11 2011 23:53:15
Writing library                  : libebml v1.2.1 + libmatroska v1.1.1

Video
ID                               : 2
Format                           : AVC
Format/Info                      : Advanced Video Codec
Format profile                   : High@L4.1
Format settings, CABAC           : Yes
Format settings, ReFrames        : 4 frames
Muxing mode                      : Header stripping
Codec ID                         : V_MPEG4/ISO/AVC
Duration                         : 1h 58mn
Bit rate                         : 2 100 Kbps
Width                            : 720 pixels
Height                           : 384 pixels
Display aspect ratio             : 1.667
Frame rate                       : 23.976 fps
Color space                      : YUV
Chroma subsampling               : 4:2:0
Bit depth                        : 8 bits
Scan type                        : Progressive
Bits/(Pixel*Frame)               : 0.317
Stream size                      : 1.71 GiB (90%)
Writing library                  : x264 core 115 r1995 c1e60b9
Encoding settings                : cabac=1 / ref=3 / deblock=1:0:0 / analyse=0x3:0x133 / me=umh / subme=7 / psy=1 / psy_rd=1.00:0.00 / mixed_ref=1 / me_range=16 / chroma_me=1 / trellis=1 / 8x8dct=1 / cqm=0 / deadzone=21,11 / fast_pskip=1 / chroma_qp_offset=-2 / threads=9 / sliced_threads=0 / nr=0 / decimate=1 / interlaced=0 / bluray_compat=0 / constrained_intra=0 / bframes=3 / b_pyramid=2 / b_adapt=1 / b_bias=0 / direct=1 / weightb=1 / open_gop=1 / weightp=2 / keyint=250 / keyint_min=23 / scenecut=40 / intra_refresh=0 / rc_lookahead=40 / rc=2pass / mbtree=1 / bitrate=2100 / ratetol=1.0 / qcomp=0.60 / qpmin=0 / qpmax=69 / qpstep=4 / cplxblur=20.0 / qblur=0.5 / ip_ratio=1.40 / aq=1:1.00
Language                         : English

Audio
ID                               : 1
Format                           : AC-3
Format/Info                      : Audio Coding 3
Format profile                   : Dolby Digital
Mode extension                   : CM (complete main)
Muxing mode                      : Header stripping
Codec ID                         : A_AC3
Duration                         : 1h 58mn
Bit rate mode                    : Constant
Bit rate                         : 192 Kbps
Channel(s)                       : 2 channels
Channel positions                : Front: L R
Sampling rate                    : 48.0 KHz
Bit depth                        : 16 bits
Compression mode                 : Lossy
Stream size                      : 163 MiB (8%)



Screenshots:
[img]https://lh3.googleusercontent.com/--y58hKUO68c/Tkwnx4zj3iI/AAAAAAAAAQw/3mgM5qqmO3E/s800/vlcsnap-2011-08-17-16h34m48s147.png[/img]
[img]https://lh4.googleusercontent.com/-66HHujFCxs4/TkwnxllBWVI/AAAAAAAAAQo/DjOHd6Hv0Oo/s800/vlcsnap-2011-08-17-16h35m35s126.png[/img]
[img]https://lh4.googleusercontent.com/--3-N097BATY/TkwnyGmX-wI/AAAAAAAAAQ0/CFyRzEP2tDU/s800/vlcsnap-2011-08-17-16h35m52s38.png[/img]
[img]https://lh6.googleusercontent.com/-XF0W64dY6Rw/Tkwnyd-YVEI/AAAAAAAAAQ4/b6ehFR2TKU4/s800/vlcsnap-2011-08-17-16h36m10s205.png[/img]
[img]https://lh3.googleusercontent.com/-cc1Qj1cuAz0/TkwnyqbEOeI/AAAAAAAAAQ8/W40xf2cn7uI/s800/vlcsnap-2011-08-17-16h36m27s125.png[/img]

Note: N/A

Encoder: Brian

Enjoy!

Respects to CaptainHomey, Cyanide, CM8, Rx, THC, ELEKTRI4KA, 
Killerhz, PA, YeFsTe, BoxSlots, MrRep and everyone in the struggle...